PathFileType	4	(X/Y/Z)	markers_results_mono.trc
DataRate	CameraRate	NumFrames	NumMarkers	Units	OrigDataRate	OrigDataStartFrame	OrigNumFrames
12.500000	12.500000	15	22	m	12.500000	754	3015
Frame#	Time	Nose			Neck			LShoulder			RShoulder			LElbow			RElbow			LWrist			RWrist			LHip			RHip			LKnee			RKnee			LAnkle			RAnkle			LEye			REye			LThumb			LIndex			LPinky			RThumb			RIndex			RPinky
		X1	Y1	Z1	X2	Y2	Z2	X3	Y3	Z3	X4	Y4	Z4	X5	Y5	Z5	X6	Y6	Z6	X7	Y7	Z7	X8	Y8	Z8	X9	Y9	Z9	X10	Y10	Z10	X11	Y11	Z11	X12	Y12	Z12	X13	Y13	Z13	X14	Y14	Z14	X15	Y15	Z15	X16	Y16	Z16	X17	Y17	Z17	X18	Y18	Z18	X19	Y19	Z19	X20	Y20	Z20	X21	Y21	Z21	X22	Y22	Z22

754	60.240000	0.027684	-0.295435	0.131289	0.014316	-0.269591	0.144021	0.011911	-0.252653	0.141244	0.016721	-0.286529	0.146798	-0.048888	-0.127948	0.065655	-0.060157	-0.178926	0.052362	0.038095	-0.161475	0.075929	0.036407	-0.196152	0.067270	-0.042622	-0.070626	0.072323	-0.026254	-0.094228	0.072100	-0.081521	-0.034084	0.050224	-0.055109	-0.057525	0.027704	-0.242103	0.002649	-0.113653	-0.168153	0.019472	-0.142360	0.027684	-0.295435	0.131289	0.027684	-0.295435	0.131289	0.038095	-0.161475	0.075929	0.038095	-0.161475	0.075929	0.038095	-0.161475	0.075929	0.036407	-0.196152	0.067270	0.036407	-0.196152	0.067270	0.036407	-0.196152	0.067270
755	60.320000	0.027368	-0.289209	0.129851	0.014755	-0.265564	0.143214	0.012738	-0.247801	0.140421	0.016771	-0.283327	0.146006	-0.049090	-0.117736	0.063099	-0.060598	-0.173774	0.052378	0.037816	-0.152801	0.075259	0.034639	-0.201555	0.071106	-0.041727	-0.063357	0.072537	-0.025622	-0.087968	0.072655	-0.083427	-0.025932	0.052265	-0.055523	-0.048248	0.029148	-0.252123	0.009038	-0.113176	-0.174894	0.023156	-0.140255	0.027368	-0.289209	0.129851	0.027368	-0.289209	0.129851	0.037816	-0.152801	0.075259	0.037816	-0.152801	0.075259	0.037816	-0.152801	0.075259	0.034639	-0.201555	0.071106	0.034639	-0.201555	0.071106	0.034639	-0.201555	0.071106
756	60.400000	0.027847	-0.283872	0.129976	0.015931	-0.262221	0.143017	0.014153	-0.243762	0.140949	0.017708	-0.280681	0.145085	-0.050092	-0.109423	0.062979	-0.061046	-0.166007	0.048961	0.037409	-0.143266	0.075303	0.032300	-0.199824	0.068381	-0.040660	-0.057921	0.073490	-0.024611	-0.083873	0.073550	-0.086065	-0.018971	0.054857	-0.055724	-0.041107	0.031238	-0.263634	0.012551	-0.113842	-0.181293	0.026432	-0.143180	0.027847	-0.283872	0.129976	0.027847	-0.283872	0.129976	0.037409	-0.143266	0.075303	0.037409	-0.143266	0.075303	0.037409	-0.143266	0.075303	0.032300	-0.199824	0.068381	0.032300	-0.199824	0.068381	0.032300	-0.199824	0.068381
757	60.480000	0.029972	-0.282814	0.132792	0.018408	-0.260017	0.144563	0.016171	-0.241137	0.144729	0.020645	-0.278896	0.144396	-0.053150	-0.111437	0.071175	-0.061494	-0.164660	0.044386	0.037916	-0.141781	0.081268	0.028814	-0.183673	0.053799	-0.039284	-0.059405	0.076779	-0.022792	-0.087740	0.076752	-0.091465	-0.018346	0.058831	-0.057682	-0.041725	0.033528	-0.274972	0.006756	-0.120191	-0.185588	0.028371	-0.160265	0.029972	-0.282814	0.132792	0.029972	-0.282814	0.132792	0.037916	-0.141781	0.081268	0.037916	-0.141781	0.081268	0.037916	-0.141781	0.081268	0.028814	-0.183673	0.053799	0.028814	-0.183673	0.053799	0.028814	-0.183673	0.053799
758	60.560000	0.030126	-0.276443	0.133041	0.019628	-0.252852	0.145251	0.017197	-0.232752	0.146750	0.022060	-0.272953	0.143752	-0.055791	-0.106229	0.076631	-0.062439	-0.167187	0.046272	0.038799	-0.139405	0.087820	0.023987	-0.181148	0.049434	-0.037450	-0.054181	0.079749	-0.021022	-0.085382	0.080311	-0.096982	-0.010960	0.061804	-0.060494	-0.033643	0.034731	-0.285841	0.009067	-0.126151	-0.190342	0.035926	-0.169115	0.030126	-0.276443	0.133041	0.030126	-0.276443	0.133041	0.038799	-0.139405	0.087820	0.038799	-0.139405	0.087820	0.038799	-0.139405	0.087820	0.023987	-0.181148	0.049434	0.023987	-0.181148	0.049434	0.023987	-0.181148	0.049434
759	60.640000	0.025288	-0.250777	0.127375	0.017485	-0.233895	0.142082	0.016596	-0.211109	0.141832	0.018373	-0.256681	0.142331	-0.054709	-0.067091	0.063844	-0.064320	-0.148795	0.050828	0.037969	-0.111311	0.081609	0.018699	-0.212327	0.071043	-0.035457	-0.023719	0.078004	-0.020421	-0.056562	0.079121	-0.096977	0.022186	0.060828	-0.059287	0.003726	0.036082	-0.298096	0.042164	-0.119589	-0.198960	0.056990	-0.141418	0.025288	-0.250777	0.127375	0.025288	-0.250777	0.127375	0.037969	-0.111311	0.081609	0.037969	-0.111311	0.081609	0.037969	-0.111311	0.081609	0.018699	-0.212327	0.071043	0.018699	-0.212327	0.071043	0.018699	-0.212327	0.071043
760	60.720000	0.022745	-0.211289	0.126973	0.017104	-0.201970	0.140267	0.017727	-0.177188	0.140088	0.016480	-0.226752	0.140446	-0.054458	-0.014645	0.053512	-0.066059	-0.096933	0.039569	0.037288	-0.061887	0.070312	0.014152	-0.209244	0.072040	-0.033881	0.018733	0.075831	-0.019395	-0.015313	0.075818	-0.095600	0.069715	0.060126	-0.055023	0.051653	0.041322	-0.311165	0.085110	-0.109863	-0.206858	0.088915	-0.117384	0.022745	-0.211289	0.126973	0.022745	-0.211289	0.126973	0.037288	-0.061887	0.070312	0.037288	-0.061887	0.070312	0.037288	-0.061887	0.070312	0.014152	-0.209244	0.072040	0.014152	-0.209244	0.072040	0.014152	-0.209244	0.072040
761	60.800000	0.032411	-0.178598	0.141376	0.025209	-0.159655	0.147511	0.023308	-0.135710	0.155443	0.027109	-0.183599	0.139580	-0.063943	-0.007672	0.086954	-0.065678	-0.057814	0.017536	0.043619	-0.045940	0.087328	0.010566	-0.098096	0.002906	-0.032825	0.039403	0.082819	-0.015295	0.000757	0.081067	-0.107467	0.098518	0.067250	-0.060487	0.071425	0.048097	-0.318988	0.091470	-0.126105	-0.206369	0.121910	-0.173324	0.032411	-0.178598	0.141376	0.032411	-0.178598	0.141376	0.043619	-0.045940	0.087328	0.043619	-0.045940	0.087328	0.043619	-0.045940	0.087328	0.010566	-0.098096	0.002906	0.010566	-0.098096	0.002906	0.010566	-0.098096	0.002906
762	60.880000	0.047523	-0.142535	0.146835	0.035795	-0.106640	0.153353	0.028353	-0.083477	0.169618	0.043237	-0.129802	0.137088	-0.079799	-0.041713	0.143472	-0.063406	-0.093343	0.033574	0.056158	-0.096648	0.139172	0.007802	0.017571	-0.063874	-0.032674	0.053614	0.090139	-0.011235	0.007818	0.088541	-0.133438	0.123410	0.075088	-0.083182	0.090914	0.042919	-0.316112	0.084837	-0.165545	-0.202955	0.159436	-0.272567	0.047523	-0.142535	0.146835	0.047523	-0.142535	0.146835	0.056158	-0.096648	0.139172	0.056158	-0.096648	0.139172	0.056158	-0.096648	0.139172	0.007802	0.017571	-0.063874	0.007802	0.017571	-0.063874	0.007802	0.017571	-0.063874
763	60.960000	0.055411	-0.074355	0.114468	0.038783	-0.055066	0.138002	0.028698	-0.029732	0.149500	0.048867	-0.080399	0.126504	-0.088003	-0.045688	0.149746	-0.059287	-0.171777	0.098988	0.061078	-0.161607	0.176984	0.009772	-0.027250	-0.028454	-0.035535	0.108729	0.073493	-0.013888	0.062035	0.070275	-0.150824	0.193798	0.065405	-0.105226	0.172385	0.019841	-0.306824	0.135389	-0.183090	-0.208174	0.205584	-0.288632	0.052678	-0.142328	0.215723	0.054462	-0.101846	0.179751	0.058850	-0.204884	0.165604	0.058140	-0.220053	0.172607	0.059029	-0.204647	0.191577	0.002553	-0.237569	0.477471	0.003286	-0.163612	0.018887	0.001043	-0.272712	0.514763
764	61.040000	0.067448	0.000266	0.087090	0.046962	-0.017125	0.122827	0.036626	0.006101	0.129685	0.057299	-0.040351	0.115968	-0.085638	0.009939	0.118379	-0.042563	-0.129669	0.100866	0.058315	-0.132329	0.158943	0.029811	-0.072853	-0.010072	-0.041250	0.187039	0.048140	-0.018355	0.147926	0.037107	-0.145863	0.288084	0.048348	-0.098144	0.270861	0.009436	-0.307375	0.216644	-0.163888	-0.213864	0.248426	-0.239975	0.067448	0.000266	0.087090	0.067448	0.000266	0.087090	0.058315	-0.132329	0.158943	0.058315	-0.132329	0.158943	0.058315	-0.132329	0.158943	0.029811	-0.072853	-0.010072	0.029811	-0.072853	-0.010072	0.029811	-0.072853	-0.010072
765	61.120000	0.100979	-0.023097	0.155318	0.083688	0.003519	0.171396	0.067027	0.010569	0.208263	0.100349	-0.003531	0.134530	-0.080206	0.077106	0.160223	0.006721	0.136966	-0.082885	0.080103	0.032964	0.106441	0.082544	0.221653	-0.229479	-0.040623	0.189549	0.084232	-0.008162	0.149580	0.070027	-0.136914	0.281237	0.070569	-0.060733	0.230324	0.061002	-0.341073	0.185141	-0.146351	-0.206533	0.245892	-0.284385	0.100979	-0.023097	0.155318	0.100979	-0.023097	0.155318	0.080103	0.032964	0.106441	0.080103	0.032964	0.106441	0.080103	0.032964	0.106441	0.082544	0.221653	-0.229479	0.082544	0.221653	-0.229479	0.082544	0.221653	-0.229479
766	61.200000	0.142691	-0.165279	0.325881	0.138908	0.024844	0.296202	0.106928	0.011482	0.402474	0.170887	0.038206	0.189930	-0.074219	0.146145	0.293033	0.092589	0.484384	-0.377439	0.145947	0.254443	0.064174	0.161420	0.768857	-0.607931	-0.023081	0.093711	0.210644	0.016258	0.026431	0.202965	-0.149923	0.123635	0.147264	-0.030230	0.029917	0.166924	-0.444425	0.001589	-0.146108	-0.219856	0.163889	-0.415722	0.144127	-0.145452	0.395626	0.145683	-0.108165	0.348801	0.138164	0.104587	0.014309	0.136550	0.071164	0.022255	0.140591	0.143888	0.087399	0.152863	0.582718	-0.497166	0.150828	0.545022	-0.521821	0.151290	0.565663	-0.609763
767	61.280000	0.186149	-0.230170	0.514446	0.184296	0.115004	0.418982	0.132865	0.107565	0.599947	0.235728	0.122443	0.238016	-0.080768	0.299564	0.385005	0.191792	0.695839	-0.595358	0.217456	0.438110	0.048603	0.241323	1.135117	-0.858197	0.000792	0.031026	0.348069	0.026868	-0.075955	0.309065	-0.200351	-0.026380	0.219484	-0.048653	-0.117850	0.233569	-0.689651	-0.155602	-0.146228	-0.326045	0.035914	-0.457579	0.188735	-0.199189	0.676626	0.191064	-0.133035	0.526595	0.206973	0.234520	-0.004933	0.203297	0.158448	0.012424	0.210190	0.283371	0.116880	0.231616	0.916754	-0.676899	0.228768	0.863457	-0.707043	0.228383	0.870098	-0.818205
768	61.360000	0.269574	-0.031071	0.686633	0.230785	0.347634	0.477587	0.157618	0.387790	0.718299	0.303952	0.307478	0.236874	-0.130229	0.581758	0.360383	0.279946	0.799591	-0.722490	0.249617	0.608242	0.057758	0.311656	1.256202	-0.968039	-0.003051	0.084751	0.410028	0.005518	-0.024807	0.237846	-0.310956	-0.010482	0.232121	-0.114197	-0.082520	0.176742	-1.143702	-0.141356	-0.167450	-0.532897	-0.070911	-0.396486	0.270962	-0.029752	0.892183	0.273309	0.037798	0.734058	0.240389	0.424054	0.048937	0.239089	0.394566	0.075138	0.242983	0.469137	0.103236	0.303128	1.060783	-0.780967	0.299195	0.984406	-0.801051	0.298668	0.989909	-0.925646
